# xmcd
#
# Track frame offsets:
#	150
#	13941
#	23601
#	41172
#	52314
#	60597
#	81867
#	91834
#	110136
#	121445
#	131687
#	140034
#	148456
#	158554
#	167450
#	183464
#	195946
#	205315
#	213408
#	223149
#	235797
#
# Disc length: 3281 seconds
#
# Revision: 1
# Processed by: cddbd v1.4PL0 Copyright (c) Steve Scherf et al.
# Submitted via: audiograbber 1.81.03
#
DISCID=3d0ccf15
DTITLE=Peter Roland - Fiddle-Ology
DYEAR=1900
DGENRE=Bluegrass
TTITLE0=Little Burnt Potato - Cobbler's Reel - St Anne's Reel
TTITLE1=Romeo's Last Chance
TTITLE2=Balkan Hills Schottish - The Diving Six 
TTITLE3=The Mouth of the Tobique
TTITLE4=Bluebird Schottish
TTITLE5=Animas Valley Waltz
TTITLE6=Little Bunch of Blackberries
TTITLE7=Lonesome Live Oak (Doggie Waltz)
TTITLE8=Old Grey Mare
TTITLE9=Tommy Don't Go
TTITLE10=Hobo Jig
TTITLE11=Horseshoe Rag
TTITLE12=Peacock Rag
TTITLE13=Crapshooter's Rag
TTITLE14=Old French Reel - Fisher's Hornpipe - Forked Deer
TTITLE15=Borga Wiggle Rag
TTITLE16=Highland Man
TTITLE17=Lord Summer's Reel
TTITLE18=Navy Dance
TTITLE19=Buff and Blue
TTITLE20=Light Horse Reel
EXTD=Phone Orders 480-969-9744\nMail Orders 1616 W. Mountain View, Mesa, AZ, 85
EXTD=201
EXTT0=
EXTT1=
EXTT2=
EXTT3=
EXTT4=
EXTT5=
EXTT6=
EXTT7=
EXTT8=
EXTT9=
EXTT10=
EXTT11=
EXTT12=
EXTT13=
EXTT14=
EXTT15=
EXTT16=
EXTT17=
EXTT18=
EXTT19=
EXTT20=
PLAYORDER=
